<svg width="1440" height="259" viewBox="0 0 1440 259" fill="none" xmlns="http://www.w3.org/2000/svg">
<path d="M0 90C0 90 166 0 447.5 0C729 0 738 90 1041 90C1344 90 1440 0 1440 0V259H0V90Z" fill="url(#paint0_radial)"/>
<mask id="mask0" mask-type="alpha" maskUnits="userSpaceOnUse" x="0" y="0" width="1440" height="259">
<path d="M0 90C0 90 166 0 447.5 0C729 0 738 90 1041 90C1344 90 1440 0 1440 0V259H0V90Z" fill="url(#paint1_radial)"/>
</mask>
<g mask="url(#mask0)">
<path fill-rule="evenodd" clip-rule="evenodd" d="M293.288 541.576C428.205 541.576 537.576 432.205 537.576 297.288C537.576 162.372 428.205 53 293.288 53C158.372 53 49 162.372 49 297.288C49 432.205 158.372 541.576 293.288 541.576ZM294.874 395.638C350.068 395.638 394.81 350.895 394.81 295.702C394.81 240.509 350.068 195.766 294.874 195.766C239.681 195.766 194.938 240.509 194.938 295.702C194.938 350.895 239.681 395.638 294.874 395.638Z" fill="black" fill-opacity="0.1"/>
<path fill-rule="evenodd" clip-rule="evenodd" d="M1369 297C1433.07 297 1485 245.065 1485 181C1485 116.935 1433.07 65 1369 65C1304.93 65 1253 116.935 1253 181C1253 245.065 1304.93 297 1369 297ZM1369.75 227.701C1395.96 227.701 1417.21 206.455 1417.21 180.247C1417.21 154.038 1395.96 132.792 1369.75 132.792C1343.54 132.792 1322.3 154.038 1322.3 180.247C1322.3 206.455 1343.54 227.701 1369.75 227.701Z" fill="black" fill-opacity="0.1"/>
<path fill-rule="evenodd" clip-rule="evenodd" d="M742.5 119C779.227 119 809 89.2269 809 52.5C809 15.7731 779.227 -14 742.5 -14C705.773 -14 676 15.7731 676 52.5C676 89.2269 705.773 119 742.5 119ZM742.932 79.2727C757.956 79.2727 770.136 67.0928 770.136 52.0682C770.136 37.0435 757.956 24.8637 742.932 24.8637C727.907 24.8637 715.727 37.0435 715.727 52.0682C715.727 67.0928 727.907 79.2727 742.932 79.2727Z" fill="black" fill-opacity="0.1"/>
</g>
<defs>
<radialGradient id="paint0_radial" cx="0" cy="0" r="1" gradientUnits="userSpaceOnUse" gradientTransform="translate(534 171) rotate(-0.447318) scale(768.523 4272.87)">
<stop stop-color="#766AFA"/>
<stop offset="1" stop-color="#5851EA"/>
</radialGradient>
<radialGradient id="paint1_radial" cx="0" cy="0" r="1" gradientUnits="userSpaceOnUse" gradientTransform="translate(534 171) rotate(-0.447318) scale(768.523 4272.87)">
<stop stop-color="#766AFA"/>
<stop offset="1" stop-color="#5851EA"/>
</radialGradient>
</defs>
</svg>
