<svg width="20" height="20" viewBox="0 0 20 20" fill="none" xmlns="http://www.w3.org/2000/svg">
<path d="M1.95 10.348C1.762 10.156 1.762 9.842 1.95 9.65L7.666 3.766C7.854 3.574 8.156 3.574 8.344 3.766L9.48 4.938C9.668 5.13 9.668 5.444 9.48 5.636L6.774 8.42H14.058C14.322 8.42 14.538 8.64 14.538 8.914V10.886C14.538 11.16 14.322 11.38 14.058 11.38H6.576L9.48 14.366C9.668 14.558 9.668 14.872 9.48 15.064L8.344 16.234C8.156 16.426 7.854 16.426 7.666 16.234L1.95 10.348ZM11.64 3.68H15.77V16.322H11.64V18.75H16.984C17.656 18.75 18.198 18.208 18.198 17.534V2.466C18.198 1.794 17.656 1.25 16.984 1.25H11.64V3.68Z" fill="#4D4D4D"/>
</svg>
