<svg width="76" height="76" viewBox="0 0 76 76" fill="none" xmlns="http://www.w3.org/2000/svg">
<path d="M0 20C0 8.95431 8.95431 0 20 0H76V56C76 67.0457 67.0457 76 56 76H0V20Z" fill="#EBEBEB"/>
<path d="M55.95 54.155C44.44 47.215 32.505 46.945 20.935 53.625C16.86 55.975 14.23 59.06 13 62.385H63C61.88 59.215 59.525 56.31 55.95 54.155ZM37.98 15.6C46.145 15.59 52.705 22.085 52.745 30.215C52.785 38.29 46.195 44.965 38.115 45.03C29.92 45.1 23.33 38.52 23.32 30.26C23.31 22.085 29.785 15.61 37.98 15.6Z" fill="white"/>
</svg>
