<svg width="20" height="20" viewBox="0 0 20 20" fill="none" xmlns="http://www.w3.org/2000/svg">
<g clip-path="url(#clip0)">
<path d="M0 19.2077C0.556 17.2997 1.11 15.3917 1.666 13.4837C1.71 13.3317 1.756 13.1797 1.796 13.0277C1.86 12.7977 1.98 12.6117 2.164 12.4577C2.336 12.3157 2.488 12.1457 2.646 11.9877C5.252 9.40566 7.858 6.82366 10.462 4.23966C10.522 4.17966 10.574 4.11166 10.616 4.05966C10.97 4.41566 11.302 4.74966 11.672 5.12166C11.632 5.14966 11.554 5.18966 11.494 5.24966C8.794 7.94366 6.096 10.6377 3.402 13.3377C3.306 13.4357 3.226 13.5697 3.188 13.7017C2.864 14.7717 2.556 15.8477 2.236 16.9217C2.196 17.0557 2.216 17.1397 2.318 17.2317C2.484 17.3817 2.63 17.5537 2.798 17.7017C2.856 17.7517 2.966 17.7897 3.036 17.7717C4.112 17.4637 5.186 17.1497 6.258 16.8257C6.35 16.7977 6.436 16.7197 6.508 16.6457C9.246 13.9157 11.98 11.1817 14.714 8.44966C14.766 8.39766 14.81 8.33966 14.84 8.30566C15.228 8.69366 15.604 9.06966 16.016 9.48166C15.998 9.49366 15.926 9.52366 15.876 9.57366C13.18 12.2437 10.48 14.9077 7.798 17.5917C7.424 17.9677 7.018 18.1997 6.516 18.3417C4.736 18.8457 2.964 19.3777 1.188 19.8997C1.07 19.9337 0.95 19.9657 0.832 19.9997H0.672C0.586 19.9617 0.498 19.9277 0.412 19.8877C0.172 19.7757 0.09 19.5477 0 19.3257V19.2077ZM5.378 15.8937C5.326 15.5617 5.27 15.2577 5.234 14.9537C5.216 14.8097 5.158 14.7517 5.018 14.7257C4.676 14.6597 4.338 14.5737 4.022 14.5037C6.858 11.6617 9.694 8.81766 12.512 5.99166C12.962 6.44166 13.432 6.90966 13.886 7.36166C11.078 10.1777 8.244 13.0197 5.378 15.8937ZM13.546 1.28166C13.802 1.03166 14.058 0.765662 14.332 0.517662C15.118 -0.190338 16.142 -0.174338 16.908 0.573663C17.754 1.39766 18.588 2.23166 19.412 3.07766C20.192 3.87566 20.18 4.94366 19.402 5.73966C19.168 5.97966 18.926 6.21366 18.702 6.43366C16.99 4.72366 15.28 3.01566 13.546 1.28166ZM11.46 3.16966C11.848 2.80566 12.246 2.43166 12.624 2.07566C14.416 3.86766 16.198 5.65166 17.996 7.44966C17.622 7.79966 17.22 8.17766 16.832 8.54166L11.46 3.16966Z" fill="#4D4D4D"/>
</g>
<defs>
<clipPath id="clip0">
<rect width="20" height="20" fill="white"/>
</clipPath>
</defs>
</svg>
