<svg width="25" height="25" viewBox="0 0 25 25" fill="none" xmlns="http://www.w3.org/2000/svg">
<path d="M15.7076 15.2975C15.1401 15.2175 14.5751 15.1175 14.0101 15.0325C13.8776 15.0125 13.8001 14.9625 13.7626 14.8175C13.6651 14.435 13.5151 14.07 13.3101 13.73C13.2401 13.6125 13.2501 13.5325 13.3276 13.425L14.3826 11.9325C14.4626 11.8225 14.4526 11.76 14.3576 11.6675C14.0126 11.3325 13.6726 10.995 13.3401 10.6475C13.2401 10.5425 13.1726 10.5425 13.0576 10.6275L11.5951 11.6875C11.4951 11.76 11.4201 11.7775 11.3076 11.71C10.9551 11.5 10.5801 11.3425 10.1801 11.24C10.0601 11.21 10.0101 11.15 9.99006 11.0225C9.89756 10.4425 9.79006 9.86502 9.69256 9.28752C9.66506 9.12752 9.62506 9.04252 9.42756 9.05002C8.96756 9.07002 8.50756 9.06502 8.05006 9.05002C7.87756 9.04502 7.83256 9.11252 7.81006 9.26502C7.72756 9.83252 7.63006 10.3975 7.54256 10.9625C7.52006 11.1075 7.47756 11.205 7.31256 11.2425C6.92006 11.3325 6.55256 11.495 6.20506 11.6975C6.10006 11.76 6.03006 11.7475 5.93756 11.68C5.44506 11.3225 4.94506 10.9725 4.45256 10.6125C4.35006 10.5375 4.29006 10.5425 4.20006 10.6325C3.86006 10.9825 3.51506 11.3275 3.16506 11.6675C3.06506 11.7625 3.06756 11.8275 3.14506 11.9375C3.49506 12.4275 3.83506 12.9225 4.18506 13.415C4.25006 13.505 4.27256 13.575 4.20756 13.6825C3.99006 14.0475 3.83256 14.44 3.72256 14.8475C3.70006 14.93 3.67506 14.9875 3.57756 15.005C2.90756 15.11 2.23506 15.2225 1.56506 15.33V17.1375C2.20506 17.25 2.84506 17.3675 3.48756 17.475C3.62506 17.4975 3.69506 17.55 3.73256 17.6925C3.83506 18.0825 3.98756 18.4525 4.19506 18.7975C4.26506 18.915 4.25256 18.995 4.17506 19.1025C3.81756 19.5875 3.47506 20.08 3.12006 20.565C3.04756 20.665 3.04506 20.7225 3.13756 20.8125C3.49256 21.155 3.84256 21.505 4.18756 21.8625C4.27756 21.9575 4.33506 21.95 4.43506 21.8775C4.92256 21.5275 5.42006 21.19 5.91006 20.8375C6.01506 20.7625 6.09506 20.745 6.21506 20.815C6.56006 21.02 6.93256 21.1725 7.32256 21.2725C7.44506 21.3025 7.50506 21.3575 7.52756 21.4975C7.62756 22.14 7.74256 22.7825 7.85006 23.4225H9.65756C9.77006 22.78 9.88756 22.14 9.99006 21.4975C10.0126 21.36 10.0676 21.3 10.1951 21.2675C10.5701 21.1675 10.9301 21.0225 11.2626 20.8225C11.4001 20.74 11.4951 20.7425 11.6251 20.8375L13.0626 21.8575C13.1801 21.9425 13.2526 21.9575 13.3626 21.84C13.6876 21.495 14.0226 21.1625 14.3676 20.835C14.4851 20.7225 14.4726 20.6525 14.3851 20.5325C14.0301 20.055 13.6901 19.5675 13.3376 19.0875C13.2601 18.9825 13.2376 18.905 13.3101 18.785C13.5176 18.44 13.6676 18.0675 13.7676 17.6775C13.8026 17.54 13.8776 17.4975 14.0026 17.475C14.5976 17.3775 15.1876 17.2675 15.7826 17.1725C15.9326 17.1475 15.9651 17.08 15.9626 16.9425C15.9551 16.49 15.9476 16.0375 15.9651 15.5875C15.9701 15.3875 15.8976 15.3225 15.7076 15.2975ZM8.74506 18.7725C7.36256 18.7575 6.24756 17.6325 6.25006 16.2525C6.25256 14.8675 7.40006 13.7275 8.77756 13.7425C10.1626 13.7575 11.2751 14.8825 11.2701 16.2625C11.2626 17.655 10.1251 18.7875 8.74506 18.7725ZM22.1976 7.59502C22.1001 7.53502 22.0576 7.48002 22.0751 7.35502C22.1176 7.07002 22.1101 6.78252 22.0826 6.49752C22.0701 6.37502 22.0926 6.30252 22.2026 6.23502L23.3326 5.53002C23.4426 5.46502 23.4576 5.40502 23.4076 5.29002C23.2676 4.97002 23.1326 4.64502 23.0076 4.31752C22.9626 4.19502 22.9051 4.17502 22.7826 4.20502C22.3601 4.31002 21.9301 4.39752 21.5076 4.50502C21.3851 4.53502 21.3076 4.52252 21.2326 4.42002C21.0576 4.18252 20.8476 3.97502 20.6126 3.79502C20.5276 3.73002 20.5051 3.66752 20.5301 3.56002C20.6351 3.13002 20.7276 2.69502 20.8301 2.26252C20.8601 2.14002 20.8401 2.07002 20.7076 2.02002C20.3801 1.89502 20.0576 1.75502 19.7376 1.61252C19.6326 1.56752 19.5776 1.58502 19.5151 1.68502C19.2901 2.06002 19.0501 2.42502 18.8276 2.80002C18.7576 2.91752 18.6801 2.95502 18.5501 2.93752C18.2651 2.89502 17.9776 2.88752 17.6926 2.93502C17.5726 2.95502 17.5126 2.90502 17.4526 2.80752C17.2301 2.44002 16.9951 2.08002 16.7801 1.70752C16.7001 1.57002 16.6301 1.55752 16.4926 1.62002C16.2076 1.75002 15.9151 1.87502 15.6176 1.97752C15.4451 2.03752 15.4051 2.11252 15.4501 2.29002C15.5576 2.72002 15.6426 3.15752 15.7476 3.64002C15.7626 3.69002 15.6851 3.73252 15.6251 3.78002C15.4051 3.95502 15.1976 4.14502 15.0301 4.37002C14.9426 4.49002 14.8551 4.50752 14.7201 4.47252C14.3026 4.36752 13.8826 4.28002 13.4676 4.17002C13.3351 4.13502 13.2901 4.17502 13.2476 4.28502C13.1201 4.60502 12.9926 4.92252 12.8476 5.23502C12.7851 5.37252 12.8201 5.43252 12.9401 5.50752C13.3051 5.73252 13.6626 5.97502 14.0276 6.20252C14.1251 6.26502 14.1601 6.33002 14.1476 6.44752C14.1151 6.73252 14.1101 7.02002 14.1426 7.30752C14.1576 7.43752 14.1251 7.51752 14.0076 7.58752C13.6426 7.80002 13.2876 8.03252 12.9251 8.24752C12.8076 8.31752 12.7676 8.37752 12.8301 8.51502C12.9701 8.82002 13.0976 9.13252 13.2101 9.45002C13.2651 9.60252 13.3401 9.61752 13.4826 9.58252C13.8851 9.48252 14.2926 9.40252 14.6976 9.31002C14.8276 9.28002 14.9201 9.29002 15.0101 9.41252C15.1776 9.64502 15.3876 9.84502 15.6176 10.02C15.7026 10.085 15.7276 10.145 15.6976 10.255C15.5901 10.6775 15.5001 11.105 15.3901 11.5275C15.3526 11.675 15.3851 11.7425 15.5301 11.7975C15.8451 11.915 16.1551 12.045 16.4601 12.1875C16.5901 12.2475 16.6476 12.21 16.7151 12.1C16.9451 11.7275 17.1901 11.365 17.4201 10.995C17.4851 10.8925 17.5501 10.8475 17.6776 10.87C17.9626 10.9175 18.2501 10.9175 18.5351 10.87C18.6526 10.85 18.7176 10.8825 18.7801 10.9825L19.4851 12.1125C19.5526 12.225 19.6176 12.2525 19.7426 12.195C20.0576 12.055 20.3751 11.9275 20.6951 11.8025C20.8026 11.76 20.8551 11.7225 20.8176 11.585C20.7051 11.155 20.6176 10.72 20.5101 10.29C20.4801 10.17 20.5026 10.0925 20.6051 10.015C20.8351 9.84252 21.0376 9.64002 21.2126 9.40752C21.2851 9.31002 21.3551 9.29502 21.4701 9.32252C21.9001 9.42752 22.3376 9.51252 22.7676 9.62252C22.9101 9.66002 22.9551 9.61252 23.0001 9.49502C23.1226 9.18252 23.2501 8.87002 23.3901 8.56502C23.4526 8.43002 23.4276 8.36502 23.3051 8.29002C22.9351 8.06252 22.5701 7.82252 22.1976 7.59502V7.59502ZM18.1051 8.82252C17.0401 8.81752 16.1851 7.93252 16.1976 6.89752C16.2101 5.83502 17.0876 4.97502 18.1451 4.99252C19.2001 5.01002 20.0601 5.88252 20.0351 6.92752C20.0101 8.00752 19.1826 8.82502 18.1051 8.82252Z" fill="white"/>
</svg>
