<svg width="25" height="25" viewBox="0 0 25 25" fill="none" xmlns="http://www.w3.org/2000/svg">
<path d="M20.2525 4.04H19.615V19.755C19.615 20.7975 18.765 21.65 17.72 21.65H6.08501V22.2325C6.08501 22.9 6.62751 23.44 7.29251 23.44H20.25C20.9175 23.44 21.4575 22.9 21.4575 22.2325V5.245C21.4575 4.58 20.92 4.0375 20.2525 4.04ZM17.7175 20.96C18.385 20.96 18.925 20.42 18.925 19.7525V2.77C18.925 2.1025 18.3825 1.5625 17.7175 1.5625H9.08501V1.9625C9.09001 2.005 9.09251 2.0475 9.09251 2.09V5.4C9.09251 6.3375 8.33001 7.1025 7.39001 7.1025H4.08001C4.04501 7.1025 4.01001 7.1 3.97501 7.0975H3.55501V19.7525C3.55501 20.42 4.09751 20.96 4.76251 20.96H17.7175ZM7.26001 9.7025H15.71C16.025 9.7025 16.28 9.9575 16.28 10.2725C16.28 10.5875 16.025 10.8425 15.71 10.8425H7.26001C6.94501 10.8425 6.69001 10.5875 6.69001 10.2725C6.69001 9.9575 6.94501 9.7025 7.26001 9.7025ZM7.26001 12.7975H15.71C16.025 12.7975 16.28 13.0525 16.28 13.3675C16.28 13.6825 16.025 13.9375 15.71 13.9375H7.26001C6.94501 13.9375 6.69001 13.6825 6.69001 13.3675C6.69001 13.0525 6.94501 12.7975 7.26001 12.7975ZM6.68751 16.2825C6.68751 15.9675 6.94251 15.7125 7.25751 15.7125H11.4825C11.7975 15.7125 12.0525 15.9675 12.0525 16.2825C12.0525 16.5975 11.795 16.8525 11.48 16.8525H7.25501C6.94501 16.8525 6.68751 16.5975 6.68751 16.2825ZM4.08001 6.4175H7.39751C7.95001 6.4125 8.39751 5.965 8.40251 5.4125V2.09C8.40251 1.785 8.15001 1.58 7.89001 1.58C7.76501 1.58 7.63751 1.625 7.53251 1.73L3.71751 5.5475C3.39751 5.8675 3.62501 6.4175 4.08001 6.4175Z" fill="#808D91"/>
</svg>
