<svg width="25" height="25" viewBox="0 0 25 25" fill="none" xmlns="http://www.w3.org/2000/svg">
<path d="M20.2526 4.04H19.6151V19.755C19.6151 20.7975 18.7651 21.65 17.7201 21.65H6.08505V22.2325C6.08505 22.9 6.62755 23.44 7.29255 23.44H20.2501C20.9176 23.44 21.4576 22.9 21.4576 22.2325V5.245C21.4576 4.58 20.9201 4.0375 20.2526 4.04ZM17.7176 20.96C18.3851 20.96 18.9251 20.42 18.9251 19.7525V2.77C18.9251 2.1025 18.3826 1.5625 17.7176 1.5625H9.08505V1.9625C9.09005 2.005 9.09255 2.0475 9.09255 2.09V5.4C9.09255 6.3375 8.33005 7.1025 7.39005 7.1025H4.08005C4.04505 7.1025 4.01005 7.1 3.97505 7.0975H3.55505V19.7525C3.55505 20.42 4.09755 20.96 4.76255 20.96H17.7176ZM7.26005 9.7025H15.7101C16.0251 9.7025 16.2801 9.9575 16.2801 10.2725C16.2801 10.5875 16.0251 10.8425 15.7101 10.8425H7.26005C6.94505 10.8425 6.69005 10.5875 6.69005 10.2725C6.69005 9.9575 6.94505 9.7025 7.26005 9.7025ZM7.26005 12.7975H15.7101C16.0251 12.7975 16.2801 13.0525 16.2801 13.3675C16.2801 13.6825 16.0251 13.9375 15.7101 13.9375H7.26005C6.94505 13.9375 6.69005 13.6825 6.69005 13.3675C6.69005 13.0525 6.94505 12.7975 7.26005 12.7975ZM6.68755 16.2825C6.68755 15.9675 6.94255 15.7125 7.25755 15.7125H11.4826C11.7976 15.7125 12.0526 15.9675 12.0526 16.2825C12.0526 16.5975 11.7951 16.8525 11.4801 16.8525H7.25505C6.94505 16.8525 6.68755 16.5975 6.68755 16.2825ZM4.08005 6.4175H7.39755C7.95005 6.4125 8.39755 5.965 8.40255 5.4125V2.09C8.40255 1.785 8.15005 1.58 7.89005 1.58C7.76505 1.58 7.63755 1.625 7.53255 1.73L3.71755 5.5475C3.39755 5.8675 3.62505 6.4175 4.08005 6.4175Z" fill="#4D4D4D"/>
</svg>
