<svg width="25" height="25" viewBox="0 0 25 25" fill="none" xmlns="http://www.w3.org/2000/svg">
<path d="M17.0125 13.93C16.7075 13.5475 16.2375 13.5625 15.96 13.965C15.8075 14.1875 15.655 14.405 15.505 14.6225C15.2275 15.025 14.7425 15.0525 14.4225 14.6825C13.74 13.895 13.085 13.14 12.425 12.3825C12.105 12.0125 11.59 12.0175 11.275 12.39L10.2775 13.5775C9.9625 13.9525 9.49 14.0625 9.2225 13.825C8.955 13.5875 8.59 13.5875 8.4075 13.8225C8.225 14.0575 7.9125 13.9675 7.7125 13.6225C7.5925 13.415 7.4725 13.2075 7.35 13C7.2475 12.8225 7.1375 12.72 7.105 12.7725C7.0825 12.8075 7.065 12.8375 7.05 12.8675C6.39 14.1 4.8975 16.7875 4.725 16.7475L4.5175 18.7975H19.9925C20.4825 18.7975 20.6325 18.4875 20.3275 18.105L17.0125 13.93ZM15.005 10.795C16.2875 10.8 17.2875 9.83001 17.305 8.56501C17.3225 7.26001 16.3225 6.21001 15.0475 6.19001C13.745 6.17001 12.6775 7.24251 12.695 8.55001C12.715 9.80001 13.735 10.79 15.005 10.795ZM22.46 3.38751H2.54C2.005 3.38751 1.5625 3.82251 1.5625 4.36501V20.62C1.5625 21.16 2.005 21.6025 2.54 21.6025H22.4625C23.0025 21.6025 23.44 21.16 23.44 20.62V4.36501C23.4375 3.82501 23.0025 3.38751 22.46 3.38751ZM22.165 19.4825C22.165 20.0175 21.73 20.46 21.1875 20.46H3.81C3.275 20.46 2.8325 20.0175 2.8325 19.4825V5.51001C2.8325 4.97001 3.275 4.53251 3.81 4.53251H21.19C21.73 4.53251 22.1675 4.96751 22.1675 5.51001V19.4825H22.165Z" fill="#808D91"/>
</svg>
