<svg width="25" height="25" viewBox="0 0 25 25" fill="none" xmlns="http://www.w3.org/2000/svg">
<g clip-path="url(#clip0)">
<path d="M12.495 22.9674C10.6225 22.9674 8.75003 22.9499 6.87753 22.9724C4.25503 23.0074 2.76753 20.9199 2.86003 18.9599C2.94503 17.1499 2.88753 15.3349 2.87003 13.5249C2.86753 13.1224 2.96003 12.8824 3.35253 12.6774C6.26753 11.1449 9.17003 9.58745 12.0675 8.01995C12.3925 7.84245 12.6375 7.85995 12.95 8.02745C15.85 9.58995 18.755 11.1474 21.6675 12.6849C22.0275 12.8724 22.1375 13.0874 22.135 13.4799C22.1125 15.3524 22.13 17.2249 22.125 19.0974C22.1175 21.3249 20.5275 22.9399 18.2925 22.9649C16.36 22.9849 14.4275 22.9674 12.495 22.9674ZM23.41 10.9999C23.08 10.8724 22.73 10.7774 22.4175 10.6124C19.31 8.96495 16.205 7.31745 13.115 5.63245C12.645 5.37495 12.31 5.40995 11.8625 5.65245C8.73503 7.34495 5.59253 9.01245 2.45003 10.6824C1.37253 11.2524 0.295028 10.7999 0.0375279 9.68745C-0.122472 8.99745 0.235028 8.33245 0.997528 7.92495C3.88753 6.37745 6.77503 4.83495 9.66753 3.29495C10.4275 2.88995 11.1775 2.45495 11.975 2.13495C12.3025 2.00245 12.8025 1.99995 13.11 2.15995C16.7975 4.08245 20.4675 6.03995 24.135 8.00245C24.855 8.38745 25.1375 9.07245 24.9375 9.77245C24.73 10.5024 24.1775 10.9274 23.41 10.9999Z" fill="#4D4D4D"/>
</g>
<defs>
<clipPath id="clip0">
<rect width="25" height="25" fill="white"/>
</clipPath>
</defs>
</svg>
