<svg width="25" height="25" viewBox="0 0 25 25" fill="none" xmlns="http://www.w3.org/2000/svg">
<g clip-path="url(#clip0)">
<path d="M12.495 22.9675C10.6225 22.9675 8.74998 22.95 6.87748 22.9725C4.25498 23.0075 2.76748 20.92 2.85998 18.96C2.94498 17.15 2.88748 15.335 2.86998 13.525C2.86748 13.1225 2.95998 12.8825 3.35248 12.6775C6.26748 11.145 9.16998 9.58751 12.0675 8.02001C12.3925 7.84251 12.6375 7.86001 12.95 8.02751C15.85 9.59001 18.755 11.1475 21.6675 12.685C22.0275 12.8725 22.1375 13.0875 22.135 13.48C22.1125 15.3525 22.13 17.225 22.125 19.0975C22.1175 21.325 20.5275 22.94 18.2925 22.965C16.36 22.985 14.4275 22.9675 12.495 22.9675ZM23.41 11C23.08 10.8725 22.73 10.7775 22.4175 10.6125C19.31 8.96501 16.205 7.31751 13.115 5.63251C12.645 5.37501 12.31 5.41001 11.8625 5.65251C8.73498 7.34501 5.59248 9.01251 2.44998 10.6825C1.37248 11.2525 0.294982 10.8 0.0374821 9.68751C-0.122518 8.99751 0.234982 8.33251 0.997482 7.92501C3.88748 6.37751 6.77498 4.83501 9.66748 3.29501C10.4275 2.89001 11.1775 2.45501 11.975 2.13501C12.3025 2.00251 12.8025 2.00001 13.11 2.16001C16.7975 4.08251 20.4675 6.04001 24.135 8.00251C24.855 8.38751 25.1375 9.07251 24.9375 9.77251C24.73 10.5025 24.1775 10.9275 23.41 11Z" fill="#766AFA"/>
</g>
<defs>
<clipPath id="clip0">
<rect width="25" height="25" fill="white"/>
</clipPath>
</defs>
</svg>
