<svg width="25" height="25" viewBox="0 0 25 25" fill="none" xmlns="http://www.w3.org/2000/svg">
<path d="M15.7075 15.2975C15.14 15.2175 14.575 15.1175 14.01 15.0325C13.8775 15.0125 13.8 14.9625 13.7625 14.8175C13.665 14.435 13.515 14.07 13.31 13.73C13.24 13.6125 13.25 13.5325 13.3275 13.425L14.3825 11.9325C14.4625 11.8225 14.4525 11.76 14.3575 11.6675C14.0125 11.3325 13.6725 10.995 13.34 10.6475C13.24 10.5425 13.1725 10.5425 13.0575 10.6275L11.595 11.6875C11.495 11.76 11.42 11.7775 11.3075 11.71C10.955 11.5 10.58 11.3425 10.18 11.24C10.06 11.21 10.01 11.15 9.99002 11.0225C9.89752 10.4425 9.79002 9.86499 9.69252 9.28749C9.66502 9.12749 9.62502 9.04249 9.42752 9.04999C8.96752 9.06999 8.50752 9.06499 8.05002 9.04999C7.87752 9.04499 7.83252 9.11249 7.81002 9.26499C7.72752 9.83249 7.63002 10.3975 7.54252 10.9625C7.52002 11.1075 7.47752 11.205 7.31252 11.2425C6.92002 11.3325 6.55252 11.495 6.20502 11.6975C6.10002 11.76 6.03002 11.7475 5.93752 11.68C5.44502 11.3225 4.94502 10.9725 4.45252 10.6125C4.35002 10.5375 4.29002 10.5425 4.20002 10.6325C3.86002 10.9825 3.51502 11.3275 3.16502 11.6675C3.06502 11.7625 3.06753 11.8275 3.14503 11.9375C3.49503 12.4275 3.83502 12.9225 4.18502 13.415C4.25002 13.505 4.27252 13.575 4.20752 13.6825C3.99003 14.0475 3.83252 14.44 3.72252 14.8475C3.70002 14.93 3.67502 14.9875 3.57753 15.005C2.90753 15.11 2.23503 15.2225 1.56503 15.33V17.1375C2.20503 17.25 2.84503 17.3675 3.48752 17.475C3.62503 17.4975 3.69502 17.55 3.73253 17.6925C3.83503 18.0825 3.98752 18.4525 4.19502 18.7975C4.26502 18.915 4.25252 18.995 4.17502 19.1025C3.81752 19.5875 3.47503 20.08 3.12003 20.565C3.04753 20.665 3.04503 20.7225 3.13753 20.8125C3.49252 21.155 3.84253 21.505 4.18752 21.8625C4.27752 21.9575 4.33502 21.95 4.43502 21.8775C4.92252 21.5275 5.42002 21.19 5.91002 20.8375C6.01502 20.7625 6.09502 20.745 6.21502 20.815C6.56002 21.02 6.93252 21.1725 7.32252 21.2725C7.44502 21.3025 7.50502 21.3575 7.52752 21.4975C7.62752 22.14 7.74252 22.7825 7.85002 23.4225H9.65752C9.77002 22.78 9.88752 22.14 9.99002 21.4975C10.0125 21.36 10.0675 21.3 10.195 21.2675C10.57 21.1675 10.93 21.0225 11.2625 20.8225C11.4 20.74 11.495 20.7425 11.625 20.8375L13.0625 21.8575C13.18 21.9425 13.2525 21.9575 13.3625 21.84C13.6875 21.495 14.0225 21.1625 14.3675 20.835C14.485 20.7225 14.4725 20.6525 14.385 20.5325C14.03 20.055 13.69 19.5675 13.3375 19.0875C13.26 18.9825 13.2375 18.905 13.31 18.785C13.5175 18.44 13.6675 18.0675 13.7675 17.6775C13.8025 17.54 13.8775 17.4975 14.0025 17.475C14.5975 17.3775 15.1875 17.2675 15.7825 17.1725C15.9325 17.1475 15.965 17.08 15.9625 16.9425C15.955 16.49 15.9475 16.0375 15.965 15.5875C15.97 15.3875 15.8975 15.3225 15.7075 15.2975ZM8.74502 18.7725C7.36252 18.7575 6.24752 17.6325 6.25002 16.2525C6.25252 14.8675 7.40002 13.7275 8.77752 13.7425C10.1625 13.7575 11.275 14.8825 11.27 16.2625C11.2625 17.655 10.125 18.7875 8.74502 18.7725ZM22.1975 7.59499C22.1 7.53499 22.0575 7.47999 22.075 7.35499C22.1175 7.06999 22.11 6.78249 22.0825 6.49749C22.07 6.37499 22.0925 6.30249 22.2025 6.23499L23.3325 5.52999C23.4425 5.46499 23.4575 5.40499 23.4075 5.28999C23.2675 4.96999 23.1325 4.64499 23.0075 4.31749C22.9625 4.19499 22.905 4.17499 22.7825 4.20499C22.36 4.30999 21.93 4.39749 21.5075 4.50499C21.385 4.53499 21.3075 4.52249 21.2325 4.41999C21.0575 4.18249 20.8475 3.97499 20.6125 3.79499C20.5275 3.72999 20.505 3.66749 20.53 3.55999C20.635 3.12999 20.7275 2.69499 20.83 2.26249C20.86 2.13999 20.84 2.06999 20.7075 2.01999C20.38 1.89499 20.0575 1.75499 19.7375 1.61249C19.6325 1.56749 19.5775 1.58499 19.515 1.68499C19.29 2.05999 19.05 2.42499 18.8275 2.79999C18.7575 2.91749 18.68 2.95499 18.55 2.93749C18.265 2.89499 17.9775 2.88749 17.6925 2.93499C17.5725 2.95499 17.5125 2.90499 17.4525 2.80749C17.23 2.43999 16.995 2.07999 16.78 1.70749C16.7 1.56999 16.63 1.55749 16.4925 1.61999C16.2075 1.74999 15.915 1.87499 15.6175 1.97749C15.445 2.03749 15.405 2.11249 15.45 2.28999C15.5575 2.71999 15.6425 3.15749 15.7475 3.63999C15.7625 3.68999 15.685 3.73249 15.625 3.77999C15.405 3.95499 15.1975 4.14499 15.03 4.36999C14.9425 4.48999 14.855 4.50749 14.72 4.47249C14.3025 4.36749 13.8825 4.27999 13.4675 4.16999C13.335 4.13499 13.29 4.17499 13.2475 4.28499C13.12 4.60499 12.9925 4.92249 12.8475 5.23499C12.785 5.37249 12.82 5.43249 12.94 5.50749C13.305 5.73249 13.6625 5.97499 14.0275 6.20249C14.125 6.26499 14.16 6.32999 14.1475 6.44749C14.115 6.73249 14.11 7.01999 14.1425 7.30749C14.1575 7.43749 14.125 7.51749 14.0075 7.58749C13.6425 7.79999 13.2875 8.03249 12.925 8.24749C12.8075 8.31749 12.7675 8.37749 12.83 8.51499C12.97 8.81999 13.0975 9.13249 13.21 9.44999C13.265 9.60249 13.34 9.61749 13.4825 9.58249C13.885 9.48249 14.2925 9.40249 14.6975 9.30999C14.8275 9.27999 14.92 9.28999 15.01 9.41249C15.1775 9.64499 15.3875 9.84499 15.6175 10.02C15.7025 10.085 15.7275 10.145 15.6975 10.255C15.59 10.6775 15.5 11.105 15.39 11.5275C15.3525 11.675 15.385 11.7425 15.53 11.7975C15.845 11.915 16.155 12.045 16.46 12.1875C16.59 12.2475 16.6475 12.21 16.715 12.1C16.945 11.7275 17.19 11.365 17.42 10.995C17.485 10.8925 17.55 10.8475 17.6775 10.87C17.9625 10.9175 18.25 10.9175 18.535 10.87C18.6525 10.85 18.7175 10.8825 18.78 10.9825L19.485 12.1125C19.5525 12.225 19.6175 12.2525 19.7425 12.195C20.0575 12.055 20.375 11.9275 20.695 11.8025C20.8025 11.76 20.855 11.7225 20.8175 11.585C20.705 11.155 20.6175 10.72 20.51 10.29C20.48 10.17 20.5025 10.0925 20.605 10.015C20.835 9.84249 21.0375 9.63999 21.2125 9.40749C21.285 9.30999 21.355 9.29499 21.47 9.32249C21.9 9.42749 22.3375 9.51249 22.7675 9.62249C22.91 9.65999 22.955 9.61249 23 9.49499C23.1225 9.18249 23.25 8.86999 23.39 8.56499C23.4525 8.42999 23.4275 8.36499 23.305 8.28999C22.935 8.06249 22.57 7.82249 22.1975 7.59499ZM18.105 8.82249C17.04 8.81749 16.185 7.93249 16.1975 6.89749C16.21 5.83499 17.0875 4.97499 18.145 4.99249C19.2 5.00999 20.06 5.88249 20.035 6.92749C20.01 8.00749 19.1825 8.82499 18.105 8.82249Z" fill="#766AFA"/>
</svg>
