<svg width="25" height="25" viewBox="0 0 25 25" fill="none" xmlns="http://www.w3.org/2000/svg">
<path d="M17.0125 13.9299C16.7075 13.5474 16.2375 13.5624 15.96 13.9649C15.8075 14.1874 15.655 14.4049 15.505 14.6224C15.2275 15.0249 14.7425 15.0524 14.4225 14.6824C13.74 13.8949 13.085 13.1399 12.425 12.3824C12.105 12.0124 11.59 12.0174 11.275 12.3899L10.2775 13.5774C9.9625 13.9524 9.49 14.0624 9.2225 13.8249C8.955 13.5874 8.59 13.5874 8.4075 13.8224C8.225 14.0574 7.9125 13.9674 7.7125 13.6224C7.5925 13.4149 7.4725 13.2074 7.35 12.9999C7.2475 12.8224 7.1375 12.7199 7.105 12.7724C7.0825 12.8074 7.065 12.8374 7.05 12.8674C6.39 14.0999 4.8975 16.7874 4.725 16.7474L4.5175 18.7974H19.9925C20.4825 18.7974 20.6325 18.4874 20.3275 18.1049L17.0125 13.9299ZM15.005 10.7949C16.2875 10.7999 17.2875 9.82995 17.305 8.56495C17.3225 7.25995 16.3225 6.20995 15.0475 6.18995C13.745 6.16995 12.6775 7.24245 12.695 8.54995C12.715 9.79995 13.735 10.7899 15.005 10.7949ZM22.46 3.38745H2.54C2.005 3.38745 1.5625 3.82245 1.5625 4.36495V20.6199C1.5625 21.1599 2.005 21.6024 2.54 21.6024H22.4625C23.0025 21.6024 23.44 21.1599 23.44 20.6199V4.36495C23.4375 3.82495 23.0025 3.38745 22.46 3.38745ZM22.165 19.4824C22.165 20.0174 21.73 20.4599 21.1875 20.4599H3.81C3.275 20.4599 2.8325 20.0174 2.8325 19.4824V5.50995C2.8325 4.96995 3.275 4.53245 3.81 4.53245H21.19C21.73 4.53245 22.1675 4.96745 22.1675 5.50995V19.4824H22.165Z" fill="#4D4D4D"/>
</svg>
