<svg width="25" height="25" viewBox="0 0 25 25" fill="none" xmlns="http://www.w3.org/2000/svg">
<path d="M1.5625 5.54251V6.15251C1.5625 7.10001 2.33 7.86751 3.2775 7.86751H12.4988C13.4463 7.86751 14.2138 7.10001 14.2138 6.15251V5.54251C14.2138 4.59501 13.4463 3.82751 12.4988 3.82751L3.2775 3.82751C2.33 3.82751 1.5625 4.59501 1.5625 5.54251ZM3.2775 14.5275H21.72C22.6675 14.5275 23.435 13.76 23.435 12.8125V12.2C23.435 11.2525 22.6675 10.485 21.72 10.485H3.2775C2.33 10.485 1.5625 11.2525 1.5625 12.2V12.81C1.5625 13.76 2.33 14.5275 3.2775 14.5275ZM14.2138 21.185H21.72C22.6675 21.185 23.435 20.4175 23.435 19.47V18.86C23.435 17.9125 22.6675 17.145 21.72 17.145H14.2138C13.2663 17.145 12.4988 17.9125 12.4988 18.86V19.47C12.4988 20.4175 13.2663 21.185 14.2138 21.185Z" fill="#808D91"/>
</svg>
