<svg width="25" height="25" viewBox="0 0 25 25" fill="none" xmlns="http://www.w3.org/2000/svg">
<path d="M1.5625 5.54239V6.15239C1.5625 7.09989 2.33 7.86739 3.2775 7.86739H12.4988C13.4463 7.86739 14.2138 7.09989 14.2138 6.15239V5.54239C14.2138 4.59489 13.4463 3.82739 12.4988 3.82739L3.2775 3.82739C2.33 3.82739 1.5625 4.59489 1.5625 5.54239ZM3.2775 14.5274H21.72C22.6675 14.5274 23.435 13.7599 23.435 12.8124V12.1999C23.435 11.2524 22.6675 10.4849 21.72 10.4849H3.2775C2.33 10.4849 1.5625 11.2524 1.5625 12.1999V12.8099C1.5625 13.7599 2.33 14.5274 3.2775 14.5274ZM14.2138 21.1849H21.72C22.6675 21.1849 23.435 20.4174 23.435 19.4699V18.8599C23.435 17.9124 22.6675 17.1449 21.72 17.1449H14.2138C13.2663 17.1449 12.4988 17.9124 12.4988 18.8599V19.4699C12.4988 20.4174 13.2663 21.1849 14.2138 21.1849Z" fill="#4D4D4D"/>
</svg>
