<svg width="105" height="25" viewBox="0 0 105 25" fill="none" xmlns="http://www.w3.org/2000/svg">
<mask id="mask0" mask-type="alpha" maskUnits="userSpaceOnUse" x="0" y="0" width="25" height="25">
<circle cx="12.1723" cy="12.1723" r="12.1723" fill="#C4C4C4"/>
</mask>
<g mask="url(#mask0)">
<path fill-rule="evenodd" clip-rule="evenodd" d="M12.2164 24.3887C18.939 24.3887 24.3887 18.939 24.3887 12.2164C24.3887 5.4938 18.939 0.0440674 12.2164 0.0440674C5.49386 0.0440674 0.0441284 5.4938 0.0441284 12.2164C0.0441284 18.939 5.49386 24.3887 12.2164 24.3887ZM12.2841 16.6796C14.7117 16.6796 16.6796 14.7116 16.6796 12.284C16.6796 9.85643 14.7117 7.88847 12.2841 7.88847C9.85647 7.88847 7.88851 9.85643 7.88851 12.284C7.88851 14.7116 9.85647 16.6796 12.2841 16.6796Z" fill="url(#paint0_linear)"/>
<mask id="mask1" mask-type="alpha" maskUnits="userSpaceOnUse" x="0" y="0" width="25" height="25">
<circle cx="12.2164" cy="12.2164" r="12.1723" fill="url(#paint1_linear)"/>
</mask>
<g mask="url(#mask1)">
<circle cx="19.3353" cy="10.7786" r="1.28485" transform="rotate(39.4662 19.3353 10.7786)" fill="#BDF7FF"/>
<circle cx="13.6385" cy="3.54772" r="0.676239" transform="rotate(39.4662 13.6385 3.54772)" fill="#D9D9D9"/>
<circle cx="4.54154" cy="15.7669" r="0.743863" transform="rotate(39.4662 4.54154 15.7669)" fill="#D7DAD7"/>
<rect x="16.2689" y="20.7799" width="2.84021" height="2.84021" transform="rotate(39.4662 16.2689 20.7799)" fill="#BCC8FF"/>
<rect x="4.03244" y="7.34216" width="3.1107" height="1.21723" transform="rotate(22.2603 4.03244 7.34216)" fill="#FCC7A0"/>
<path d="M16.4527 6.14256L18.0498 3.3736L19.6079 5.63025L16.4527 6.14256Z" fill="#EDBBFF"/>
<path d="M11.3117 19.6159L7.90414 20.7269L8.50721 17.3841L11.3117 19.6159Z" fill="#F4C09F"/>
</g>
</g>
<path d="M34.056 16.6171C34.4844 16.6171 34.835 16.5846 35.1076 16.5197C35.3933 16.4418 35.6205 16.3444 35.7893 16.2276C35.9581 16.0977 36.0749 15.9484 36.1399 15.7796C36.2048 15.6108 36.2372 15.4226 36.2372 15.2148C36.2372 14.7734 36.0295 14.4098 35.614 14.1242C35.1985 13.8255 34.4844 13.5074 33.4717 13.1699C33.0302 13.0141 32.5888 12.8388 32.1473 12.644C31.7059 12.4363 31.3099 12.1831 30.9593 11.8845C30.6088 11.5729 30.3231 11.2028 30.1024 10.7744C29.8817 10.3329 29.7713 9.80057 29.7713 9.17735C29.7713 8.55413 29.8882 7.99582 30.1219 7.50244C30.3556 6.99607 30.6867 6.56761 31.1151 6.21704C31.5436 5.86648 32.0629 5.60031 32.6732 5.41854C33.2834 5.22378 33.9716 5.1264 34.7376 5.1264C35.6465 5.1264 36.432 5.22378 37.0942 5.41854C37.7563 5.6133 38.3017 5.82753 38.7301 6.06124L37.8537 8.45675C37.4772 8.26199 37.0552 8.0932 36.5878 7.95038C36.1334 7.79457 35.5816 7.71667 34.9324 7.71667C34.2053 7.71667 33.6794 7.82054 33.3548 8.02828C33.0432 8.22304 32.8874 8.52816 32.8874 8.94364C32.8874 9.19033 32.9458 9.39807 33.0627 9.56686C33.1796 9.73565 33.3419 9.89146 33.5496 10.0343C33.7703 10.1641 34.017 10.2875 34.2897 10.4043C34.5753 10.5082 34.8869 10.6186 35.2245 10.7354C35.9256 10.9951 36.5359 11.2548 37.0552 11.5144C37.5746 11.7611 38.003 12.0533 38.3406 12.3908C38.6912 12.7284 38.9509 13.1244 39.1196 13.5789C39.2884 14.0333 39.3728 14.5851 39.3728 15.2343C39.3728 16.4937 38.9314 17.474 38.0485 18.1751C37.1656 18.8633 35.8347 19.2073 34.056 19.2073C33.4587 19.2073 32.9199 19.1684 32.4395 19.0905C31.9591 19.0256 31.5306 18.9412 31.1541 18.8373C30.7905 18.7334 30.4724 18.6231 30.1998 18.5062C29.9401 18.3894 29.7194 18.279 29.5376 18.1751L30.3945 15.7601C30.797 15.9809 31.2904 16.1821 31.8747 16.3639C32.4719 16.5327 33.199 16.6171 34.056 16.6171Z" fill="#766AFA"/>
<path d="M41.5158 18.9347V4.28895L44.4176 3.82153V8.72941C44.6124 8.66449 44.8591 8.60606 45.1577 8.55413C45.4693 8.48921 45.768 8.45675 46.0536 8.45675C46.8846 8.45675 47.5727 8.5736 48.118 8.80731C48.6763 9.02804 49.1178 9.34614 49.4424 9.76162C49.7799 10.1771 50.0137 10.6705 50.1435 11.2418C50.2863 11.8131 50.3577 12.4493 50.3577 13.1504V18.9347H47.4558V13.501C47.4558 12.5661 47.3325 11.9039 47.0858 11.5144C46.8521 11.1249 46.4107 10.9302 45.7615 10.9302C45.5018 10.9302 45.2551 10.9561 45.0214 11.0081C44.8007 11.047 44.5994 11.0925 44.4176 11.1444V18.9347H41.5158Z" fill="#766AFA"/>
<path d="M52.4975 13.8905C52.4975 12.9816 52.6338 12.1896 52.9065 11.5144C53.1921 10.8263 53.5621 10.255 54.0166 9.80057C54.471 9.34614 54.9904 9.00207 55.5746 8.76836C56.1719 8.53465 56.7821 8.4178 57.4053 8.4178C58.8595 8.4178 60.0086 8.86574 60.8525 9.76162C61.6965 10.6445 62.1185 11.9494 62.1185 13.6762C62.1185 13.845 62.112 14.0333 62.099 14.241C62.086 14.4358 62.073 14.6111 62.06 14.7669H55.4772C55.5422 15.3641 55.8213 15.838 56.3147 16.1886C56.8081 16.5392 57.4703 16.7144 58.3012 16.7144C58.8336 16.7144 59.3529 16.669 59.8593 16.5781C60.3786 16.4742 60.8006 16.3509 61.1252 16.2081L61.5147 18.5646C61.3589 18.6425 61.1512 18.7204 60.8915 18.7983C60.6318 18.8762 60.3397 18.9412 60.0151 18.9931C59.7035 19.058 59.3659 19.11 59.0023 19.1489C58.6388 19.1879 58.2753 19.2073 57.9117 19.2073C56.9899 19.2073 56.1849 19.071 55.4967 18.7983C54.8216 18.5257 54.2568 18.1556 53.8023 17.6882C53.3609 17.2078 53.0298 16.643 52.8091 15.9938C52.6013 15.3447 52.4975 14.6435 52.4975 13.8905ZM59.314 12.7804C59.301 12.5337 59.2555 12.2935 59.1776 12.0598C59.1127 11.826 59.0023 11.6183 58.8465 11.4365C58.7037 11.2548 58.5155 11.1054 58.2817 10.9886C58.061 10.8717 57.7819 10.8133 57.4443 10.8133C57.1197 10.8133 56.8405 10.8717 56.6068 10.9886C56.3731 11.0925 56.1784 11.2353 56.0226 11.4171C55.8668 11.5988 55.7434 11.8131 55.6525 12.0598C55.5746 12.2935 55.5162 12.5337 55.4772 12.7804H59.314Z" fill="#766AFA"/>
<path d="M70.5317 11.2612C70.272 11.1963 69.9669 11.1314 69.6163 11.0665C69.2657 10.9886 68.8892 10.9496 68.4867 10.9496C68.3049 10.9496 68.0842 10.9691 67.8245 11.0081C67.5778 11.034 67.3896 11.0665 67.2597 11.1054V18.9347H64.3579V9.23578C64.8772 9.054 65.4874 8.88521 66.1886 8.72941C66.9027 8.56062 67.6947 8.47623 68.5646 8.47623C68.7204 8.47623 68.9087 8.48921 69.1294 8.51518C69.3501 8.52816 69.5709 8.55413 69.7916 8.59308C70.0123 8.61905 70.233 8.658 70.4538 8.70993C70.6745 8.74888 70.8627 8.80082 71.0185 8.86574L70.5317 11.2612Z" fill="#766AFA"/>
<path d="M79.1375 13.8905C79.1375 12.9946 78.9362 12.2805 78.5337 11.7481C78.1312 11.2028 77.534 10.9302 76.742 10.9302C76.4823 10.9302 76.2421 10.9431 76.0214 10.9691C75.8006 10.9821 75.6189 11.0016 75.476 11.0275V16.2665C75.6578 16.3834 75.8915 16.4807 76.1772 16.5586C76.4758 16.6365 76.7744 16.6755 77.0731 16.6755C78.4493 16.6755 79.1375 15.7472 79.1375 13.8905ZM82.0978 13.8126C82.0978 14.6046 82.0004 15.3252 81.8056 15.9744C81.6109 16.6236 81.3252 17.1819 80.9487 17.6493C80.5722 18.1167 80.1048 18.4802 79.5465 18.7399C78.9882 18.9996 78.3455 19.1294 77.6184 19.1294C77.2159 19.1294 76.8393 19.0905 76.4888 19.0126C76.1382 18.9347 75.8006 18.8243 75.476 18.6815V22.5377H72.5742V9.04102C72.8338 8.96312 73.1325 8.89171 73.4701 8.82679C73.8076 8.74888 74.1582 8.68396 74.5217 8.63203C74.8983 8.58009 75.2748 8.54114 75.6513 8.51518C76.0408 8.47622 76.4109 8.45675 76.7614 8.45675C77.6054 8.45675 78.3585 8.58659 79.0206 8.84626C79.6828 9.09295 80.2411 9.45001 80.6955 9.91743C81.15 10.3719 81.494 10.9302 81.7277 11.5923C81.9744 12.2545 82.0978 12.9946 82.0978 13.8126Z" fill="#766AFA"/>
<path d="M93.9101 13.7931C93.9101 14.5981 93.7932 15.3382 93.5595 16.0133C93.3258 16.6755 92.9882 17.2468 92.5468 17.7272C92.1053 18.1946 91.573 18.5581 90.9498 18.8178C90.3396 19.0775 89.6514 19.2073 88.8854 19.2073C88.1323 19.2073 87.4442 19.0775 86.8209 18.8178C86.2107 18.5581 85.6849 18.1946 85.2434 17.7272C84.802 17.2468 84.4579 16.6755 84.2112 16.0133C83.9645 15.3382 83.8412 14.5981 83.8412 13.7931C83.8412 12.9881 83.9645 12.2545 84.2112 11.5923C84.4709 10.9302 84.8214 10.3654 85.2629 9.89795C85.7173 9.43053 86.2497 9.06699 86.8599 8.80731C87.4831 8.54764 88.1583 8.4178 88.8854 8.4178C89.6254 8.4178 90.3006 8.54764 90.9108 8.80731C91.5341 9.06699 92.0664 9.43053 92.5078 9.89795C92.9493 10.3654 93.2934 10.9302 93.5401 11.5923C93.7868 12.2545 93.9101 12.9881 93.9101 13.7931ZM90.9498 13.7931C90.9498 12.8972 90.768 12.1961 90.4045 11.6897C90.0539 11.1704 89.5475 10.9107 88.8854 10.9107C88.2232 10.9107 87.7103 11.1704 87.3468 11.6897C86.9832 12.1961 86.8015 12.8972 86.8015 13.7931C86.8015 14.689 86.9832 15.4031 87.3468 15.9354C87.7103 16.4548 88.2232 16.7144 88.8854 16.7144C89.5475 16.7144 90.0539 16.4548 90.4045 15.9354C90.768 15.4031 90.9498 14.689 90.9498 13.7931Z" fill="#766AFA"/>
<path d="M96.158 9.04102C96.6514 8.8982 97.2876 8.76836 98.0666 8.65151C98.8457 8.52167 99.6636 8.45675 100.521 8.45675C101.39 8.45675 102.111 8.5736 102.682 8.80731C103.267 9.02804 103.728 9.34614 104.065 9.76162C104.403 10.1771 104.643 10.6705 104.786 11.2418C104.929 11.8131 105 12.4493 105 13.1504V18.9347H102.098V13.501C102.098 12.5661 101.975 11.9039 101.728 11.5144C101.481 11.1249 101.02 10.9302 100.345 10.9302C100.138 10.9302 99.9168 10.9431 99.6831 10.9691C99.4494 10.9821 99.2417 11.0016 99.0599 11.0275V18.9347H96.158V9.04102Z" fill="#766AFA"/>
<defs>
<linearGradient id="paint0_linear" x1="12.2164" y1="0.0440674" x2="12.2164" y2="24.3887" gradientUnits="userSpaceOnUse">
<stop stop-color="#F473B3"/>
<stop offset="1" stop-color="#CC77DD"/>
</linearGradient>
<linearGradient id="paint1_linear" x1="12.2164" y1="0.0440674" x2="12.2164" y2="24.3887" gradientUnits="userSpaceOnUse">
<stop stop-color="#F473B3"/>
<stop offset="1" stop-color="#CC77DD"/>
</linearGradient>
</defs>
</svg>
