<svg width="106" height="27" viewBox="0 0 106 27" fill="none" xmlns="http://www.w3.org/2000/svg">
<path d="M37.6123 18.7498C38.4848 18.7498 39.12 18.6038 39.5178 18.3116C39.9156 18.0195 40.1145 17.6067 40.1145 17.0732C40.1145 16.7557 40.0439 16.4826 39.9028 16.254C39.7744 16.0253 39.582 15.8221 39.3253 15.6443C39.0815 15.4538 38.78 15.2823 38.4207 15.1299C38.0614 14.9648 37.6508 14.806 37.1888 14.6536C36.7269 14.4885 36.2778 14.3106 35.8415 14.1201C35.4181 13.9169 35.0395 13.6692 34.7059 13.3771C34.3851 13.0849 34.122 12.7357 33.9167 12.3292C33.7243 11.9228 33.628 11.4337 33.628 10.8622C33.628 9.66823 34.0451 8.73467 34.8791 8.06149C35.7132 7.37561 36.8488 7.03267 38.286 7.03267C39.12 7.03267 39.8578 7.12793 40.4994 7.31845C41.1539 7.49627 41.6671 7.69315 42.0392 7.90907L41.2886 9.8524C40.8523 9.61108 40.3711 9.4269 39.845 9.29989C39.3317 9.17287 38.7992 9.10937 38.2475 9.10937C37.593 9.10937 37.0798 9.24273 36.7076 9.50946C36.3484 9.7762 36.1687 10.1509 36.1687 10.6335C36.1687 10.9257 36.2265 11.1797 36.3419 11.3956C36.4703 11.5989 36.6435 11.783 36.8616 11.9482C37.0926 12.1133 37.3556 12.2657 37.6508 12.4054C37.9587 12.5451 38.2924 12.6785 38.6517 12.8055C39.2804 13.0341 39.8386 13.2691 40.3262 13.5104C40.8266 13.7391 41.2437 14.0185 41.5773 14.3487C41.9238 14.6663 42.1868 15.0473 42.3665 15.4919C42.5461 15.9237 42.6359 16.4508 42.6359 17.0732C42.6359 18.2672 42.2061 19.1944 41.3463 19.8549C40.4994 20.5026 39.2548 20.8265 37.6123 20.8265C37.0605 20.8265 36.5537 20.7884 36.0917 20.7122C35.6426 20.6487 35.2384 20.5661 34.8791 20.4645C34.5327 20.3629 34.2311 20.2613 33.9745 20.1597C33.7178 20.0454 33.5125 19.9438 33.3586 19.8549L34.0707 17.8925C34.4172 18.083 34.8855 18.2735 35.4758 18.464C36.0661 18.6546 36.7782 18.7498 37.6123 18.7498Z" fill="#766AFA"/>
<path d="M44.6577 20.5407V6.13721L46.9866 5.75616V10.6907C47.2433 10.6018 47.5384 10.5256 47.872 10.4621C48.2185 10.3986 48.5585 10.3668 48.8922 10.3668C49.7006 10.3668 50.3678 10.4811 50.8939 10.7098C51.4329 10.9257 51.8627 11.2369 52.1835 11.6433C52.5043 12.0371 52.7289 12.5134 52.8572 13.0722C52.9983 13.6311 53.0689 14.2535 53.0689 14.9394V20.5407H50.7399V15.3014C50.7399 14.7679 50.7014 14.317 50.6245 13.9486C50.5603 13.5676 50.4448 13.2628 50.278 13.0341C50.124 12.7928 49.9123 12.6213 49.6428 12.5197C49.3734 12.4054 49.0397 12.3483 48.6419 12.3483C48.334 12.3483 48.0196 12.38 47.6988 12.4435C47.378 12.507 47.1406 12.5642 46.9866 12.615V20.5407H44.6577Z" fill="#766AFA"/>
<path d="M55.3022 15.6062C55.3022 14.7298 55.4306 13.9613 55.6872 13.3009C55.9567 12.6404 56.3095 12.0942 56.7458 11.6624C57.1821 11.2178 57.6825 10.8876 58.2471 10.6717C58.8117 10.443 59.3892 10.3287 59.9794 10.3287C61.3652 10.3287 62.4431 10.7542 63.213 11.6052C63.9958 12.4562 64.3871 13.7264 64.3871 15.4157C64.3871 15.5427 64.3807 15.6888 64.3679 15.8539C64.3679 16.0063 64.3615 16.146 64.3486 16.273H57.7082C57.7724 17.0732 58.0547 17.6956 58.5551 18.1401C59.0684 18.572 59.8062 18.7879 60.7686 18.7879C61.3332 18.7879 61.8464 18.7371 62.3084 18.6355C62.7832 18.5339 63.1553 18.4259 63.4247 18.3116L63.7327 20.1978C63.6044 20.2613 63.4247 20.3312 63.1938 20.4074C62.9756 20.4709 62.719 20.528 62.4239 20.5788C62.1416 20.6423 61.8336 20.6932 61.5 20.7313C61.1664 20.7694 60.8263 20.7884 60.4799 20.7884C59.5945 20.7884 58.8246 20.6614 58.1701 20.4074C57.5157 20.1406 56.9768 19.7786 56.5533 19.3214C56.1299 18.8514 55.8155 18.3053 55.6102 17.6829C55.4049 17.0478 55.3022 16.3556 55.3022 15.6062ZM62.0582 14.5774C62.0582 14.2598 62.0133 13.9613 61.9234 13.6819C61.8336 13.3898 61.6989 13.1421 61.5192 12.9389C61.3524 12.7229 61.1407 12.5578 60.8841 12.4435C60.6403 12.3165 60.3451 12.253 59.9987 12.253C59.6394 12.253 59.325 12.3229 59.0555 12.4626C58.7861 12.5896 58.5551 12.7611 58.3626 12.977C58.183 13.1929 58.0418 13.4406 57.9392 13.72C57.8365 13.9995 57.7659 14.2852 57.7274 14.5774H62.0582Z" fill="#766AFA"/>
<path d="M72.5922 12.6531C72.3997 12.5896 72.1303 12.5261 71.7838 12.4626C71.4502 12.3864 71.0588 12.3483 70.6097 12.3483C70.3531 12.3483 70.0772 12.3737 69.782 12.4245C69.4997 12.4753 69.3008 12.5197 69.1854 12.5578V20.5407H66.8564V11.0527C67.3055 10.8876 67.8637 10.7352 68.5309 10.5954C69.211 10.443 69.9617 10.3668 70.7829 10.3668C70.9369 10.3668 71.1165 10.3795 71.3219 10.4049C71.5272 10.4176 71.7325 10.443 71.9378 10.4811C72.1431 10.5065 72.342 10.5446 72.5345 10.5954C72.7269 10.6335 72.8809 10.6717 72.9964 10.7098L72.5922 12.6531Z" fill="#766AFA"/>
<path d="M81.2983 15.6062C81.2983 14.5774 81.0609 13.7772 80.5861 13.2056C80.1242 12.634 79.3735 12.3483 78.3342 12.3483C78.116 12.3483 77.8851 12.361 77.6413 12.3864C77.4103 12.3991 77.1793 12.4372 76.9483 12.5007V18.1973C77.1536 18.337 77.4231 18.4704 77.7567 18.5974C78.1032 18.7117 78.4689 18.7689 78.8539 18.7689C79.7007 18.7689 80.3167 18.4831 80.7016 17.9115C81.0994 17.34 81.2983 16.5715 81.2983 15.6062ZM83.685 15.5681C83.685 16.3302 83.5824 17.0288 83.3771 17.6638C83.1846 18.2989 82.9023 18.8451 82.5302 19.3023C82.158 19.7596 81.6897 20.1152 81.1251 20.3693C80.5733 20.6233 79.9446 20.7503 79.2388 20.7503C78.764 20.7503 78.3278 20.6932 77.93 20.5788C77.5322 20.4645 77.205 20.3375 76.9483 20.1978V24.0654H74.6194V10.9003C75.0941 10.7733 75.678 10.6526 76.3709 10.5383C77.0638 10.424 77.7952 10.3668 78.5651 10.3668C79.3607 10.3668 80.0729 10.4875 80.7016 10.7288C81.3304 10.9701 81.8629 11.3194 82.2992 11.7767C82.7483 12.2212 83.0883 12.7674 83.3193 13.4152C83.5631 14.0503 83.685 14.7679 83.685 15.5681Z" fill="#766AFA"/>
<path d="M95.1894 15.549C95.1894 16.3365 95.0739 17.0542 94.8429 17.7019C94.612 18.3497 94.2848 18.9022 93.8613 19.3595C93.4379 19.8167 92.9246 20.1724 92.3215 20.4264C91.7312 20.6805 91.0768 20.8075 90.3582 20.8075C89.6397 20.8075 88.9852 20.6805 88.395 20.4264C87.8047 20.1724 87.2979 19.8167 86.8744 19.3595C86.451 18.9022 86.1173 18.3497 85.8735 17.7019C85.6426 17.0542 85.5271 16.3365 85.5271 15.549C85.5271 14.7615 85.6426 14.0503 85.8735 13.4152C86.1173 12.7674 86.451 12.2149 86.8744 11.7576C87.3107 11.3004 87.824 10.9511 88.4142 10.7098C89.0045 10.4557 89.6525 10.3287 90.3582 10.3287C91.064 10.3287 91.712 10.4557 92.3023 10.7098C92.9053 10.9511 93.4186 11.3004 93.8421 11.7576C94.2655 12.2149 94.5927 12.7674 94.8237 13.4152C95.0675 14.0503 95.1894 14.7615 95.1894 15.549ZM92.8027 15.549C92.8027 14.5583 92.5846 13.7772 92.1483 13.2056C91.7248 12.6213 91.1281 12.3292 90.3582 12.3292C89.5883 12.3292 88.9852 12.6213 88.549 13.2056C88.1255 13.7772 87.9138 14.5583 87.9138 15.549C87.9138 16.5525 88.1255 17.3463 88.549 17.9306C88.9852 18.5148 89.5883 18.807 90.3582 18.807C91.1281 18.807 91.7248 18.5148 92.1483 17.9306C92.5846 17.3463 92.8027 16.5525 92.8027 15.549Z" fill="#766AFA"/>
<path d="M97.5887 10.9003C98.0379 10.7733 98.6217 10.6526 99.3403 10.5383C100.059 10.424 100.854 10.3668 101.727 10.3668C102.548 10.3668 103.235 10.4811 103.786 10.7098C104.338 10.9257 104.775 11.2369 105.095 11.6433C105.429 12.0371 105.66 12.5197 105.788 13.0913C105.929 13.6502 106 14.2662 106 14.9394V20.5407H103.671V15.3014C103.671 14.7679 103.633 14.317 103.556 13.9486C103.491 13.5676 103.376 13.2628 103.209 13.0341C103.055 12.7928 102.837 12.6213 102.555 12.5197C102.285 12.4054 101.952 12.3483 101.554 12.3483C101.259 12.3483 100.951 12.3673 100.63 12.4054C100.309 12.4435 100.072 12.4753 99.9177 12.5007V20.5407H97.5887V10.9003Z" fill="#766AFA"/>
<path d="M14.6315 11.6264L20.1637 16.3354C20.1637 16.3354 21.3437 17.3897 20.5699 19.284C19.6053 20.9686 18.4486 20.7136 18.4486 20.7136C8.35719 20.0515 1.04091 21.9479 1.28284 27H7.61526H13.5494H19.4836C23.7109 27 27.067 23.6418 27.067 19.4572V13.5833V8.45329C23.9121 10.4324 19.6985 11.4264 14.6315 11.6264Z" fill="#766AFA"/>
<path d="M26.6474 0H19.4836H13.5494H7.61506C3.38778 0 0 3.52495 0 7.70932V13.5833V19.1758C1.53673 18.0462 3.30176 17.1863 5.34332 16.6527C7.51812 16.0623 9.62935 15.8049 11.6352 15.6604L8.49988 12.9579C7.02987 11.7876 5.95306 10.978 5.6205 10.1499C5.40144 9.33492 5.50677 8.51143 5.91907 7.67983C6.60246 6.82912 7.3146 6.43991 8.05737 6.53981C11.0398 6.79402 14.0167 6.76183 16.9888 6.45528C20.4555 6.03158 23.0498 5.23405 24.6885 4.02736C25.6551 3.34093 26.7363 2.28087 26.6493 0.101146" fill="#766AFA"/>
</svg>
