<svg width="15" height="15" viewBox="0 0 15 15" fill="none" xmlns="http://www.w3.org/2000/svg">
<path d="M14.142 5.358H9.642V0.8565C9.642 0.3855 9.2565 0 8.7855 0H6.2145C5.7435 0 5.3565 0.3855 5.3565 0.8565V5.358H0.8565C0.3855 5.358 0 5.7435 0 6.2145V8.7855C0 9.2565 0.3855 9.642 0.8565 9.642H5.3565V14.1435C5.3565 14.613 5.7435 15 6.2145 15H8.7855C9.2565 15 9.642 14.613 9.642 14.1435V9.642H14.142C14.6145 9.642 15 9.2565 15 8.7855V6.2145C15 5.7435 14.6145 5.358 14.142 5.358Z" fill="#808D91"/>
</svg>
