<svg width="15" height="15" viewBox="0 0 15 15" fill="none" xmlns="http://www.w3.org/2000/svg">
<path d="M5.98477 12.2712C5.83327 12.3942 5.68177 12.5157 5.53177 12.6387C5.30977 12.8202 5.08777 13.0062 4.86427 13.1877C4.65577 13.3587 4.49677 13.3422 4.30027 13.1577C3.88927 12.7722 3.94627 12.7047 4.19827 12.2787C4.34077 12.0372 4.47877 11.7942 4.59277 11.5272C4.32127 11.7162 4.04977 11.9037 3.77827 12.0912C3.71827 12.1332 3.65977 12.1812 3.58627 12.1977C3.27277 12.2652 3.16027 11.9907 2.98327 11.8332C2.86177 11.7252 2.86177 11.5722 2.93077 11.4267C3.03277 11.2122 3.13927 11.0007 3.24127 10.7862C3.26527 10.7367 3.30577 10.6932 3.29677 10.6062C3.08827 10.7082 2.88727 10.8027 2.69077 10.9032C2.29627 11.1072 2.23477 11.0982 1.92877 10.7832C1.80877 10.6617 1.68427 10.5477 1.56877 10.4232C1.42627 10.2687 1.41877 10.1007 1.54927 9.93265C1.75627 9.66715 1.97077 9.40615 2.15977 9.11365C1.90777 9.24565 1.65427 9.37465 1.40227 9.50815C0.913267 9.77065 0.913267 9.77215 0.523267 9.37915C0.383767 9.23815 0.239767 9.10165 0.104767 8.95765C-0.0767331 8.76265 -0.0152331 8.47915 0.233767 8.39365C0.890767 8.17165 1.45927 7.79215 2.02327 7.40665C2.84077 6.84715 3.61177 6.22765 4.36627 5.58715C4.67527 5.32465 4.78627 5.32615 5.06827 5.60665C6.39727 6.93265 7.72477 8.26165 9.05227 9.58765C9.19177 9.72865 9.33127 9.86815 9.47077 10.0077C9.66127 10.1997 9.66877 10.3647 9.49327 10.5732C9.02527 11.1327 8.54677 11.6832 8.08627 12.2487C7.54477 12.9132 7.07677 13.6257 6.70927 14.3997C6.66727 14.4867 6.63577 14.5767 6.60427 14.6682C6.49027 15.0102 6.21727 15.0732 5.95927 14.8152C5.77927 14.6367 5.59927 14.4567 5.41777 14.2782C5.21827 14.0802 5.19577 13.9707 5.31577 13.7202C5.52877 13.2762 5.74627 12.8352 5.96077 12.3942C5.97727 12.3597 5.99077 12.3252 6.00577 12.2907L5.98477 12.2712ZM14.9998 2.18965C14.9923 2.74015 14.8393 3.19165 14.5348 3.59215C14.4418 3.71515 14.3323 3.81565 14.2003 3.89965C13.0693 4.60615 11.9398 5.31715 10.8118 6.02815C10.5538 6.19015 10.3438 6.40015 10.2163 6.68365C10.1518 6.83065 10.1593 6.95365 10.2928 7.07665C10.4953 7.26415 10.6978 7.45315 10.8673 7.67515C11.1973 8.10265 11.2183 8.70265 10.7653 9.09115C10.6798 9.16465 10.6063 9.25315 10.5238 9.33115C10.3438 9.50215 10.1668 9.50365 9.98827 9.32665C9.46327 8.80615 8.93977 8.28265 8.41477 7.75765C7.54027 6.88315 6.66427 6.00715 5.78827 5.13115C5.77327 5.11465 5.75677 5.09965 5.74027 5.08465C5.43877 4.78315 5.43727 4.65265 5.73877 4.35415C5.92177 4.17115 6.08827 3.96715 6.35827 3.89965C6.76477 3.79765 7.10677 3.92965 7.40527 4.19365C7.58677 4.35415 7.75327 4.53415 7.92577 4.70515C8.09377 4.87165 8.17777 4.88965 8.38927 4.77565C8.65327 4.63165 8.85427 4.41865 9.01327 4.16665C9.67777 3.10915 10.3543 2.05915 10.9993 0.989654C11.3608 0.392654 11.8978 0.109154 12.5548 0.0356539C13.8643 -0.109846 15.0013 0.925154 14.9998 2.18965ZM13.3228 2.23315C13.3273 1.93015 13.0798 1.68115 12.7783 1.68415C12.4843 1.68415 12.2263 1.94515 12.2278 2.23765C12.2293 2.53315 12.4738 2.77915 12.7648 2.78065C13.0933 2.78215 13.3198 2.55865 13.3228 2.23315Z" fill="#808D91"/>
</svg>
