<svg width="15" height="15" viewBox="0 0 15 15" fill="none" xmlns="http://www.w3.org/2000/svg">
<path d="M5.23049 6.5759C5.96849 8.5319 6.69899 10.4714 7.44449 12.4484C7.47449 12.5294 7.52399 12.5279 7.55399 12.4484C8.30099 10.4669 9.03149 8.5259 9.76799 6.5759C9.79799 6.4949 9.75299 6.4304 9.66749 6.4304H5.33099C5.24549 6.4304 5.20049 6.4964 5.23049 6.5759ZM1.04699 6.5444C3.03599 8.5964 5.00099 10.6259 6.96749 12.6539C7.02749 12.7154 7.08149 12.7619 7.08749 12.7559C7.09349 12.7514 7.07549 12.6824 7.04399 12.6014L4.77299 6.5774C4.74299 6.4964 4.64849 6.4319 4.56299 6.4319H1.09349C1.00799 6.4334 0.986994 6.4829 1.04699 6.5444V6.5444ZM10.215 6.5984C9.57149 8.3129 8.92499 10.0259 8.27999 11.7404C8.17049 12.0299 8.06249 12.3209 7.95449 12.6104C7.92449 12.6914 7.90499 12.7589 7.91099 12.7619C7.91699 12.7649 7.97099 12.7184 8.02949 12.6569C9.99749 10.6259 11.9655 8.5949 13.959 6.5369C14.019 6.4754 14.022 6.4259 13.9665 6.4259H13.866C12.732 6.4259 11.598 6.4304 10.4625 6.4214C10.314 6.4214 10.2615 6.4754 10.215 6.5984ZM9.64049 5.8559C8.95349 4.8194 8.27549 3.7964 7.58549 2.7569C7.53749 2.6849 7.46099 2.6849 7.41299 2.7569C6.72149 3.7994 6.04199 4.8239 5.35799 5.8559C5.30999 5.9279 5.34149 5.9849 5.42699 5.9849H9.56999C9.65699 5.9849 9.68849 5.9264 9.64049 5.8559ZM3.13349 2.5874C2.40149 3.6899 1.68449 4.7684 0.959994 5.8604C0.911994 5.9324 0.943494 5.9894 1.02899 5.9894H4.39499C4.48049 5.9894 4.52549 5.9249 4.49549 5.8439C4.08749 4.7624 3.68399 3.6929 3.27299 2.6039C3.24299 2.5229 3.17999 2.5154 3.13349 2.5874V2.5874ZM14.04 5.8589C13.311 4.7624 12.5955 3.6869 11.865 2.5874C11.817 2.5154 11.754 2.5229 11.724 2.6039C11.3115 3.6974 10.908 4.7684 10.503 5.8439C10.473 5.9249 10.518 5.9894 10.6035 5.9894H13.9695C14.0565 5.9894 14.088 5.9309 14.04 5.8589ZM11.2455 2.2439H7.91549C7.82999 2.2439 7.79849 2.3024 7.84649 2.3729C8.56799 3.4604 9.27599 4.5269 9.99599 5.6144C10.044 5.6864 10.107 5.6789 10.137 5.5979C10.545 4.5149 10.944 3.4559 11.346 2.3894C11.376 2.3084 11.331 2.2439 11.2455 2.2439ZM7.08149 2.2469H3.75449C3.66899 2.2469 3.62399 2.3114 3.65399 2.3924C4.05449 3.4559 4.45349 4.5134 4.86299 5.5994C4.89299 5.6804 4.95599 5.6864 5.00399 5.6159C5.72699 4.5254 6.43499 3.4589 7.15199 2.3774C7.19849 2.3039 7.16699 2.2469 7.08149 2.2469Z" fill="#808D91"/>
</svg>
