<svg width="15" height="15" viewBox="0 0 15 15" fill="none" xmlns="http://www.w3.org/2000/svg">
<path d="M12.4215 0.9375H2.5785C2.127 0.9375 1.758 1.3065 1.758 1.758V13.242C1.758 13.6935 2.127 14.0625 2.5785 14.0625H12.4215C12.873 14.0625 13.242 13.6935 13.242 13.242V1.758C13.242 1.3065 12.873 0.9375 12.4215 0.9375ZM4.629 3.399H7.9095C8.136 3.399 8.3205 3.5835 8.3205 3.8085C8.3205 4.035 8.136 4.2195 7.9095 4.2195H4.629C4.4025 4.2195 4.2195 4.035 4.2195 3.8085C4.218 3.5835 4.404 3.399 4.629 3.399ZM10.3725 11.601H4.629C4.4025 11.601 4.2195 11.4165 4.2195 11.19C4.2195 10.965 4.404 10.779 4.629 10.779H10.371C10.5975 10.779 10.7805 10.9635 10.7805 11.19C10.7805 11.4165 10.596 11.601 10.3725 11.601ZM10.3725 9.141H4.629C4.4025 9.141 4.2195 8.9565 4.2195 8.73C4.2195 8.505 4.404 8.3205 4.629 8.3205H10.371C10.5975 8.3205 10.7805 8.505 10.7805 8.73C10.782 8.955 10.596 9.141 10.3725 9.141ZM10.3725 6.6795H4.629C4.4025 6.6795 4.2195 6.495 4.2195 6.27C4.2195 6.0435 4.404 5.859 4.629 5.859H10.371C10.5975 5.859 10.7805 6.0435 10.7805 6.27C10.782 6.495 10.596 6.6795 10.3725 6.6795Z" fill="#808D91"/>
</svg>
