<svg width="80" height="80" viewBox="0 0 80 80" fill="none" xmlns="http://www.w3.org/2000/svg">
<path d="M71.2 10.1121V10.0081H8.768V10.1121C6.752 10.2561 5.24 11.9041 5 13.9041V56.0241C5 56.8321 5.208 57.5121 5.552 58.1281C6.344 59.5521 7.504 60.2721 9.112 60.2721H31.648V65.1521H24.6C24.176 65.1521 23.832 65.5041 23.832 65.9361V69.1841C23.832 69.6161 24.176 69.9681 24.6 69.9681H55.4C55.824 69.9681 56.168 69.6161 56.168 69.1841V65.9361C56.168 65.5041 55.824 65.1521 55.4 65.1521H48.32V60.2721H70.848C72.464 60.2721 73.632 59.5521 74.416 58.1281C74.768 57.4801 75 56.7921 75 56.0241V13.9041C74.76 11.9041 73.152 10.2561 71.2 10.1121ZM71.2 14.2561V56.0241C71.2 56.2721 71.096 56.3761 70.856 56.3761H9.112C8.872 56.3761 8.768 56.2721 8.768 56.0241V13.9041H71.2V14.2561Z" fill="#EBEBEB"/>
</svg>
