<svg width="320" height="320" viewBox="0 0 320 320" fill="none" xmlns="http://www.w3.org/2000/svg">
<rect width="320" height="320" fill="white"/>
<rect width="40" height="40" fill="#F7F5F5"/>
<rect x="40" width="40" height="40" fill="#EDECEC"/>
<rect x="80" width="40" height="40" fill="#F7F5F5"/>
<rect x="120" width="40" height="40" fill="#EDECEC"/>
<rect x="160" width="40" height="40" fill="#F7F5F5"/>
<rect x="200" width="40" height="40" fill="#EDECEC"/>
<rect x="240" width="40" height="40" fill="#F7F5F5"/>
<rect x="280" width="40" height="40" fill="#EDECEC"/>
<rect x="40" y="40" width="40" height="40" fill="#F7F5F5"/>
<rect x="80" y="40" width="40" height="40" fill="#EDECEC"/>
<rect x="120" y="40" width="40" height="40" fill="#F7F5F5"/>
<rect x="160" y="40" width="40" height="40" fill="#EDECEC"/>
<rect x="200" y="40" width="40" height="40" fill="#F7F5F5"/>
<rect x="240" y="40" width="40" height="40" fill="#EDECEC"/>
<rect x="280" y="40" width="40" height="40" fill="#F7F5F5"/>
<rect y="40" width="40" height="40" fill="#EDECEC"/>
<rect y="80" width="40" height="40" fill="#F7F5F5"/>
<rect x="40" y="80" width="40" height="40" fill="#EDECEC"/>
<rect x="80" y="80" width="40" height="40" fill="#F7F5F5"/>
<rect x="120" y="80" width="40" height="40" fill="#EDECEC"/>
<rect x="160" y="80" width="40" height="40" fill="#F7F5F5"/>
<rect x="200" y="80" width="40" height="40" fill="#EDECEC"/>
<rect x="240" y="80" width="40" height="40" fill="#F7F5F5"/>
<rect x="280" y="80" width="40" height="40" fill="#EDECEC"/>
<rect x="40" y="120" width="40" height="40" fill="#F7F5F5"/>
<rect x="80" y="120" width="40" height="40" fill="#EDECEC"/>
<rect x="120" y="120" width="40" height="40" fill="#F7F5F5"/>
<rect x="160" y="120" width="40" height="40" fill="#EDECEC"/>
<rect x="200" y="120" width="40" height="40" fill="#F7F5F5"/>
<rect x="240" y="120" width="40" height="40" fill="#EDECEC"/>
<rect x="280" y="120" width="40" height="40" fill="#F7F5F5"/>
<rect y="120" width="40" height="40" fill="#EDECEC"/>
<rect y="160" width="40" height="40" fill="#F7F5F5"/>
<rect x="40" y="160" width="40" height="40" fill="#EDECEC"/>
<rect x="80" y="160" width="40" height="40" fill="#F7F5F5"/>
<rect x="120" y="160" width="40" height="40" fill="#EDECEC"/>
<rect x="160" y="160" width="40" height="40" fill="#F7F5F5"/>
<rect x="200" y="160" width="40" height="40" fill="#EDECEC"/>
<rect x="240" y="160" width="40" height="40" fill="#F7F5F5"/>
<rect x="280" y="160" width="40" height="40" fill="#EDECEC"/>
<rect x="40" y="200" width="40" height="40" fill="#F7F5F5"/>
<rect x="80" y="200" width="40" height="40" fill="#EDECEC"/>
<rect x="120" y="200" width="40" height="40" fill="#F7F5F5"/>
<rect x="160" y="200" width="40" height="40" fill="#EDECEC"/>
<rect x="200" y="200" width="40" height="40" fill="#F7F5F5"/>
<rect x="240" y="200" width="40" height="40" fill="#EDECEC"/>
<rect x="280" y="200" width="40" height="40" fill="#F7F5F5"/>
<rect y="200" width="40" height="40" fill="#EDECEC"/>
<rect y="240" width="40" height="40" fill="#F7F5F5"/>
<rect x="40" y="240" width="40" height="40" fill="#EDECEC"/>
<rect x="80" y="240" width="40" height="40" fill="#F7F5F5"/>
<rect x="120" y="240" width="40" height="40" fill="#EDECEC"/>
<rect x="160" y="240" width="40" height="40" fill="#F7F5F5"/>
<rect x="200" y="240" width="40" height="40" fill="#EDECEC"/>
<rect x="240" y="240" width="40" height="40" fill="#F7F5F5"/>
<rect x="280" y="240" width="40" height="40" fill="#EDECEC"/>
<rect x="40" y="280" width="40" height="40" fill="#F7F5F5"/>
<rect x="80" y="280" width="40" height="40" fill="#EDECEC"/>
<rect x="120" y="280" width="40" height="40" fill="#F7F5F5"/>
<rect x="160" y="280" width="40" height="40" fill="#EDECEC"/>
<rect x="200" y="280" width="40" height="40" fill="#F7F5F5"/>
<rect x="240" y="280" width="40" height="40" fill="#EDECEC"/>
<rect x="280" y="280" width="40" height="40" fill="#F7F5F5"/>
<rect y="280" width="40" height="40" fill="#EDECEC"/>
</svg>
